<mxfile host="Electron" agent="Mozilla/5.0 (Windows NT 10.0; Win64; x64) AppleWebKit/537.36 (KHTML, like Gecko) draw.io/24.7.17 Chrome/128.0.6613.36 Electron/32.0.1 Safari/537.36" version="24.7.17">
  <diagram name="Página-1" id="UilwT7m0pdWqBSaKDyIy">
    <mxGraphModel dx="880" dy="532" grid="1" gridSize="10" guides="1" tooltips="1" connect="1" arrows="1" fold="1" page="1" pageScale="1" pageWidth="827" pageHeight="1169" math="0" shadow="0">
      <root>
        <mxCell id="0" />
        <mxCell id="1" parent="0" />
        <mxCell id="XfBfYKV5XyBPK5F6d_Jy-1" value="ID" style="swimlane;fontStyle=0;childLayout=stackLayout;horizontal=1;startSize=30;horizontalStack=0;resizeParent=1;resizeParentMax=0;resizeLast=0;collapsible=1;marginBottom=0;whiteSpace=wrap;html=1;" parent="1" vertex="1">
          <mxGeometry x="120" y="40" width="140" height="90" as="geometry" />
        </mxCell>
        <mxCell id="XfBfYKV5XyBPK5F6d_Jy-2" value="TITULO" style="text;html=1;align=center;verticalAlign=middle;resizable=0;points=[];autosize=1;strokeColor=none;fillColor=none;" parent="XfBfYKV5XyBPK5F6d_Jy-1" vertex="1">
          <mxGeometry y="30" width="140" height="30" as="geometry" />
        </mxCell>
        <mxCell id="XfBfYKV5XyBPK5F6d_Jy-3" value="Descripción" style="text;html=1;align=center;verticalAlign=middle;resizable=0;points=[];autosize=1;strokeColor=none;fillColor=none;" parent="XfBfYKV5XyBPK5F6d_Jy-1" vertex="1">
          <mxGeometry y="60" width="140" height="30" as="geometry" />
        </mxCell>
        <mxCell id="XfBfYKV5XyBPK5F6d_Jy-4" value="Recuperar Datos" style="swimlane;fontStyle=0;childLayout=stackLayout;horizontal=1;startSize=20;horizontalStack=0;resizeParent=1;resizeParentMax=0;resizeLast=0;collapsible=1;marginBottom=0;whiteSpace=wrap;html=1;" parent="1" vertex="1">
          <mxGeometry x="260" y="40" width="460" height="60" as="geometry" />
        </mxCell>
        <mxCell id="XfBfYKV5XyBPK5F6d_Jy-16" value="Como empleado o gerente quiero recuperar los datos de una factura&lt;div&gt;para poder cobrarla&lt;/div&gt;" style="text;html=1;align=center;verticalAlign=middle;resizable=0;points=[];autosize=1;strokeColor=none;fillColor=none;" parent="XfBfYKV5XyBPK5F6d_Jy-4" vertex="1">
          <mxGeometry y="20" width="460" height="40" as="geometry" />
        </mxCell>
        <mxCell id="XfBfYKV5XyBPK5F6d_Jy-5" value="REGLAS DEL&lt;div&gt;NEGOCIO&lt;/div&gt;" style="swimlane;fontStyle=0;childLayout=stackLayout;horizontal=1;startSize=60;horizontalStack=0;resizeParent=1;resizeParentMax=0;resizeLast=0;collapsible=1;marginBottom=0;whiteSpace=wrap;html=1;" parent="1" vertex="1">
          <mxGeometry x="120" y="100" width="140" height="60" as="geometry" />
        </mxCell>
        <mxCell id="XfBfYKV5XyBPK5F6d_Jy-6" value="- Conexion con el sistema del banco central&lt;div&gt;-Codigo de Pago existente&lt;/div&gt;" style="swimlane;fontStyle=0;childLayout=stackLayout;horizontal=1;startSize=60;horizontalStack=0;resizeParent=1;resizeParentMax=0;resizeLast=0;collapsible=1;marginBottom=0;whiteSpace=wrap;html=1;" parent="1" vertex="1">
          <mxGeometry x="260" y="100" width="460" height="60" as="geometry" />
        </mxCell>
        <mxCell id="XfBfYKV5XyBPK5F6d_Jy-7" value="CRITERIOS DE ACEPTACION" style="swimlane;fontStyle=0;childLayout=stackLayout;horizontal=1;startSize=60;horizontalStack=0;resizeParent=1;resizeParentMax=0;resizeLast=0;collapsible=1;marginBottom=0;whiteSpace=wrap;html=1;" parent="1" vertex="1">
          <mxGeometry x="120" y="210" width="170" height="60" as="geometry" />
        </mxCell>
        <mxCell id="XfBfYKV5XyBPK5F6d_Jy-8" value="" style="swimlane;fontStyle=0;childLayout=stackLayout;horizontal=1;startSize=60;horizontalStack=0;resizeParent=1;resizeParentMax=0;resizeLast=0;collapsible=1;marginBottom=0;whiteSpace=wrap;html=1;" parent="1" vertex="1">
          <mxGeometry x="290" y="210" width="430" height="60" as="geometry" />
        </mxCell>
        <mxCell id="XfBfYKV5XyBPK5F6d_Jy-9" value="ESCENARIO 1:" style="swimlane;fontStyle=0;childLayout=stackLayout;horizontal=1;startSize=120;horizontalStack=0;resizeParent=1;resizeParentMax=0;resizeLast=0;collapsible=1;marginBottom=0;whiteSpace=wrap;html=1;" parent="1" vertex="1">
          <mxGeometry x="190" y="270" width="100" height="120" as="geometry" />
        </mxCell>
        <mxCell id="XfBfYKV5XyBPK5F6d_Jy-10" value="Recuperacion Exitosa:&lt;div&gt;Dado que el codigo de pago &quot;12345&quot; existe y la conexion con el banco&lt;/div&gt;&lt;div&gt;central es exitosa&lt;/div&gt;&lt;div&gt;Cuando el empleado o gerente ingresa el codigo de pago &quot;12345&quot;&lt;/div&gt;&lt;div&gt;Entonces el sistema recupera los datos de la factura&lt;/div&gt;" style="swimlane;fontStyle=0;childLayout=stackLayout;horizontal=1;startSize=120;horizontalStack=0;resizeParent=1;resizeParentMax=0;resizeLast=0;collapsible=1;marginBottom=0;whiteSpace=wrap;html=1;" parent="1" vertex="1">
          <mxGeometry x="290" y="270" width="430" height="120" as="geometry" />
        </mxCell>
        <mxCell id="XfBfYKV5XyBPK5F6d_Jy-11" value="" style="swimlane;startSize=0;" parent="1" vertex="1">
          <mxGeometry x="120" y="40" width="600" height="590" as="geometry" />
        </mxCell>
        <mxCell id="XfBfYKV5XyBPK5F6d_Jy-12" value="ESCENARIO 2:" style="swimlane;fontStyle=0;childLayout=stackLayout;horizontal=1;startSize=120;horizontalStack=0;resizeParent=1;resizeParentMax=0;resizeLast=0;collapsible=1;marginBottom=0;whiteSpace=wrap;html=1;" parent="XfBfYKV5XyBPK5F6d_Jy-11" vertex="1">
          <mxGeometry x="70" y="350" width="100" height="120" as="geometry" />
        </mxCell>
        <mxCell id="XfBfYKV5XyBPK5F6d_Jy-13" value="Recuperacion Fallida por Codigo inexistente:&lt;div&gt;Dado que el codigo de pago &quot;55555&quot; no existe y la conexion con el banco&lt;/div&gt;&lt;div&gt;central es exitosa&lt;/div&gt;&lt;div&gt;Cuando el empleado o gerente ingresa el codigo de pago &quot;55555&quot;&lt;/div&gt;&lt;div&gt;Entonces el sistema informa que el codigo no existe&lt;/div&gt;" style="swimlane;fontStyle=0;childLayout=stackLayout;horizontal=1;startSize=120;horizontalStack=0;resizeParent=1;resizeParentMax=0;resizeLast=0;collapsible=1;marginBottom=0;whiteSpace=wrap;html=1;" parent="XfBfYKV5XyBPK5F6d_Jy-11" vertex="1">
          <mxGeometry x="170" y="350" width="430" height="120" as="geometry" />
        </mxCell>
        <mxCell id="XfBfYKV5XyBPK5F6d_Jy-14" value="ESCENARIO 3:" style="swimlane;fontStyle=0;childLayout=stackLayout;horizontal=1;startSize=120;horizontalStack=0;resizeParent=1;resizeParentMax=0;resizeLast=0;collapsible=1;marginBottom=0;whiteSpace=wrap;html=1;" parent="XfBfYKV5XyBPK5F6d_Jy-11" vertex="1">
          <mxGeometry x="70" y="470" width="100" height="120" as="geometry" />
        </mxCell>
        <mxCell id="XfBfYKV5XyBPK5F6d_Jy-15" value="&lt;pre style=&quot;font-size: 9px;&quot;&gt;&lt;span style=&quot;font-family: Helvetica; font-size: 12px; white-space: normal;&quot;&gt;Recuperacion Fallida por conexion fallida:&lt;/span&gt;&lt;div style=&quot;font-family: Helvetica; font-size: 12px; white-space: normal;&quot;&gt;Dado que el codigo de pago &quot;1111&quot; existe y no se pudo establecer conexion con el banco&lt;/div&gt;&lt;div style=&quot;font-family: Helvetica; font-size: 12px; white-space: normal;&quot;&gt;Cuando el empleado o gerente ingresa el codigo de pago &quot;1111&quot;&lt;/div&gt;&lt;div style=&quot;font-family: Helvetica; font-size: 12px; white-space: normal;&quot;&gt;Entonces el sistema informa el error de conexion&lt;/div&gt;&lt;/pre&gt;" style="swimlane;fontStyle=0;childLayout=stackLayout;horizontal=1;startSize=120;horizontalStack=0;resizeParent=1;resizeParentMax=0;resizeLast=0;collapsible=1;marginBottom=0;whiteSpace=wrap;html=1;" parent="XfBfYKV5XyBPK5F6d_Jy-11" vertex="1">
          <mxGeometry x="170" y="470" width="430" height="120" as="geometry" />
        </mxCell>
        <mxCell id="XfBfYKV5XyBPK5F6d_Jy-17" value="ID" style="swimlane;fontStyle=0;childLayout=stackLayout;horizontal=1;startSize=30;horizontalStack=0;resizeParent=1;resizeParentMax=0;resizeLast=0;collapsible=1;marginBottom=0;whiteSpace=wrap;html=1;" parent="1" vertex="1">
          <mxGeometry x="120" y="670" width="140" height="90" as="geometry" />
        </mxCell>
        <mxCell id="XfBfYKV5XyBPK5F6d_Jy-18" value="TITULO" style="text;html=1;align=center;verticalAlign=middle;resizable=0;points=[];autosize=1;strokeColor=none;fillColor=none;" parent="XfBfYKV5XyBPK5F6d_Jy-17" vertex="1">
          <mxGeometry y="30" width="140" height="30" as="geometry" />
        </mxCell>
        <mxCell id="XfBfYKV5XyBPK5F6d_Jy-19" value="Descripción" style="text;html=1;align=center;verticalAlign=middle;resizable=0;points=[];autosize=1;strokeColor=none;fillColor=none;" parent="XfBfYKV5XyBPK5F6d_Jy-17" vertex="1">
          <mxGeometry y="60" width="140" height="30" as="geometry" />
        </mxCell>
        <mxCell id="XfBfYKV5XyBPK5F6d_Jy-20" value="Verificar Vencimiento" style="swimlane;fontStyle=0;childLayout=stackLayout;horizontal=1;startSize=30;horizontalStack=0;resizeParent=1;resizeParentMax=0;resizeLast=0;collapsible=1;marginBottom=0;whiteSpace=wrap;html=1;" parent="1" vertex="1">
          <mxGeometry x="260" y="670" width="460" height="60" as="geometry" />
        </mxCell>
        <mxCell id="XfBfYKV5XyBPK5F6d_Jy-21" value="REGLAS DEL&lt;div&gt;NEGOCIO&lt;/div&gt;" style="swimlane;fontStyle=0;childLayout=stackLayout;horizontal=1;startSize=60;horizontalStack=0;resizeParent=1;resizeParentMax=0;resizeLast=0;collapsible=1;marginBottom=0;whiteSpace=wrap;html=1;" parent="1" vertex="1">
          <mxGeometry x="120" y="730" width="140" height="60" as="geometry" />
        </mxCell>
        <mxCell id="XfBfYKV5XyBPK5F6d_Jy-22" value="-La factura no debe tener vencido su 2do vencimiento.&lt;div&gt;&lt;br&gt;&lt;/div&gt;" style="swimlane;fontStyle=0;childLayout=stackLayout;horizontal=1;startSize=60;horizontalStack=0;resizeParent=1;resizeParentMax=0;resizeLast=0;collapsible=1;marginBottom=0;whiteSpace=wrap;html=1;" parent="1" vertex="1">
          <mxGeometry x="260" y="730" width="460" height="60" as="geometry" />
        </mxCell>
        <mxCell id="XfBfYKV5XyBPK5F6d_Jy-23" value="CRITERIOS DE ACEPTACION" style="swimlane;fontStyle=0;childLayout=stackLayout;horizontal=1;startSize=60;horizontalStack=0;resizeParent=1;resizeParentMax=0;resizeLast=0;collapsible=1;marginBottom=0;whiteSpace=wrap;html=1;" parent="1" vertex="1">
          <mxGeometry x="120" y="840" width="170" height="60" as="geometry" />
        </mxCell>
        <mxCell id="XfBfYKV5XyBPK5F6d_Jy-24" value="" style="swimlane;fontStyle=0;childLayout=stackLayout;horizontal=1;startSize=60;horizontalStack=0;resizeParent=1;resizeParentMax=0;resizeLast=0;collapsible=1;marginBottom=0;whiteSpace=wrap;html=1;" parent="1" vertex="1">
          <mxGeometry x="290" y="840" width="430" height="60" as="geometry" />
        </mxCell>
        <mxCell id="XfBfYKV5XyBPK5F6d_Jy-25" value="ESCENARIO 1:" style="swimlane;fontStyle=0;childLayout=stackLayout;horizontal=1;startSize=120;horizontalStack=0;resizeParent=1;resizeParentMax=0;resizeLast=0;collapsible=1;marginBottom=0;whiteSpace=wrap;html=1;" parent="1" vertex="1">
          <mxGeometry x="190" y="900" width="100" height="120" as="geometry" />
        </mxCell>
        <mxCell id="XfBfYKV5XyBPK5F6d_Jy-26" value="Factura No Vencida:&lt;div&gt;Dado que la factura del Cliente con DNI 43015801 no esta vencida&lt;/div&gt;&lt;div&gt;Cuando se recuperan los datos de la factura del cliente con DNI 43015801&lt;/div&gt;&lt;div&gt;Entonces el sistema informa el monto original de la factura&lt;/div&gt;" style="swimlane;fontStyle=0;childLayout=stackLayout;horizontal=1;startSize=120;horizontalStack=0;resizeParent=1;resizeParentMax=0;resizeLast=0;collapsible=1;marginBottom=0;whiteSpace=wrap;html=1;" parent="1" vertex="1">
          <mxGeometry x="290" y="900" width="430" height="120" as="geometry" />
        </mxCell>
        <mxCell id="XfBfYKV5XyBPK5F6d_Jy-27" value="" style="swimlane;startSize=0;" parent="1" vertex="1">
          <mxGeometry x="120" y="670" width="600" height="590" as="geometry" />
        </mxCell>
        <mxCell id="XfBfYKV5XyBPK5F6d_Jy-28" value="ESCENARIO 2:" style="swimlane;fontStyle=0;childLayout=stackLayout;horizontal=1;startSize=120;horizontalStack=0;resizeParent=1;resizeParentMax=0;resizeLast=0;collapsible=1;marginBottom=0;whiteSpace=wrap;html=1;" parent="XfBfYKV5XyBPK5F6d_Jy-27" vertex="1">
          <mxGeometry x="70" y="350" width="100" height="120" as="geometry" />
        </mxCell>
        <mxCell id="XfBfYKV5XyBPK5F6d_Jy-29" value="&lt;pre style=&quot;font-size: 9px;&quot;&gt;&lt;span style=&quot;font-family: Helvetica; font-size: 12px; white-space: normal;&quot;&gt;Factura Vencida en su 1er Vencimiento:&lt;/span&gt;&lt;div style=&quot;font-family: Helvetica; font-size: 12px; white-space: normal;&quot;&gt;Dado que la factura del Cliente con DNI 433333 tiene vencido&lt;/div&gt;&lt;div style=&quot;font-family: Helvetica; font-size: 12px; white-space: normal;&quot;&gt;solo el primer vencimiento&lt;/div&gt;&lt;div style=&quot;font-family: Helvetica; font-size: 12px; white-space: normal;&quot;&gt;Cuando se recuperan los datos de la factura del cliente con DNI 433333&lt;/div&gt;&lt;div style=&quot;font-family: Helvetica; font-size: 12px; white-space: normal;&quot;&gt;Entonces el sistema informa el monto original de la factura con un recargo aplicado.&lt;/div&gt;&lt;/pre&gt;" style="swimlane;fontStyle=0;childLayout=stackLayout;horizontal=1;startSize=120;horizontalStack=0;resizeParent=1;resizeParentMax=0;resizeLast=0;collapsible=1;marginBottom=0;whiteSpace=wrap;html=1;" parent="XfBfYKV5XyBPK5F6d_Jy-27" vertex="1">
          <mxGeometry x="170" y="350" width="430" height="120" as="geometry" />
        </mxCell>
        <mxCell id="XfBfYKV5XyBPK5F6d_Jy-30" value="ESCENARIO 3:" style="swimlane;fontStyle=0;childLayout=stackLayout;horizontal=1;startSize=120;horizontalStack=0;resizeParent=1;resizeParentMax=0;resizeLast=0;collapsible=1;marginBottom=0;whiteSpace=wrap;html=1;" parent="XfBfYKV5XyBPK5F6d_Jy-27" vertex="1">
          <mxGeometry x="70" y="470" width="100" height="120" as="geometry" />
        </mxCell>
        <mxCell id="XfBfYKV5XyBPK5F6d_Jy-31" value="&lt;pre style=&quot;font-size: 9px;&quot;&gt;&lt;span style=&quot;font-family: Helvetica; font-size: 12px; white-space: normal;&quot;&gt;Factura Vencida en su 2da Vencimiento:&lt;/span&gt;&lt;div style=&quot;font-family: Helvetica; font-size: 12px; white-space: normal;&quot;&gt;Dado que la factura del Cliente con DNI 414141 tiene vencido su 2do&amp;nbsp;&lt;span style=&quot;background-color: initial;&quot;&gt;vencimiento&lt;/span&gt;&lt;/div&gt;&lt;div style=&quot;font-family: Helvetica; font-size: 12px; white-space: normal;&quot;&gt;Cuando se recuperan los datos de la factura del cliente con DNI 414141&lt;/div&gt;&lt;div style=&quot;font-family: Helvetica; font-size: 12px; white-space: normal;&quot;&gt;Entonces el sistema informa q no se puede cobrar la factura&lt;/div&gt;&lt;div style=&quot;font-family: Helvetica; font-size: 12px; white-space: normal;&quot;&gt;porque vencio su 2do vencimiento&lt;/div&gt;&lt;/pre&gt;" style="swimlane;fontStyle=0;childLayout=stackLayout;horizontal=1;startSize=120;horizontalStack=0;resizeParent=1;resizeParentMax=0;resizeLast=0;collapsible=1;marginBottom=0;whiteSpace=wrap;html=1;" parent="XfBfYKV5XyBPK5F6d_Jy-27" vertex="1">
          <mxGeometry x="170" y="470" width="430" height="120" as="geometry" />
        </mxCell>
        <mxCell id="XfBfYKV5XyBPK5F6d_Jy-32" value="Como empleado o gerente quiero verificar el vencimiento de una factura&lt;div&gt;para poder cobrarla&lt;/div&gt;" style="text;html=1;align=center;verticalAlign=middle;resizable=0;points=[];autosize=1;strokeColor=none;fillColor=none;" parent="XfBfYKV5XyBPK5F6d_Jy-27" vertex="1">
          <mxGeometry x="150" y="23" width="410" height="40" as="geometry" />
        </mxCell>
        <mxCell id="XfBfYKV5XyBPK5F6d_Jy-33" value="ID" style="swimlane;fontStyle=0;childLayout=stackLayout;horizontal=1;startSize=30;horizontalStack=0;resizeParent=1;resizeParentMax=0;resizeLast=0;collapsible=1;marginBottom=0;whiteSpace=wrap;html=1;" parent="1" vertex="1">
          <mxGeometry x="120" y="1300" width="140" height="90" as="geometry" />
        </mxCell>
        <mxCell id="XfBfYKV5XyBPK5F6d_Jy-34" value="TITULO" style="text;html=1;align=center;verticalAlign=middle;resizable=0;points=[];autosize=1;strokeColor=none;fillColor=none;" parent="XfBfYKV5XyBPK5F6d_Jy-33" vertex="1">
          <mxGeometry y="30" width="140" height="30" as="geometry" />
        </mxCell>
        <mxCell id="XfBfYKV5XyBPK5F6d_Jy-35" value="Descripción" style="text;html=1;align=center;verticalAlign=middle;resizable=0;points=[];autosize=1;strokeColor=none;fillColor=none;" parent="XfBfYKV5XyBPK5F6d_Jy-33" vertex="1">
          <mxGeometry y="60" width="140" height="30" as="geometry" />
        </mxCell>
        <mxCell id="XfBfYKV5XyBPK5F6d_Jy-36" value="Registrar Pagos" style="swimlane;fontStyle=0;childLayout=stackLayout;horizontal=1;startSize=30;horizontalStack=0;resizeParent=1;resizeParentMax=0;resizeLast=0;collapsible=1;marginBottom=0;whiteSpace=wrap;html=1;" parent="1" vertex="1">
          <mxGeometry x="260" y="1300" width="460" height="60" as="geometry" />
        </mxCell>
        <mxCell id="XfBfYKV5XyBPK5F6d_Jy-37" value="REGLAS DEL&lt;div&gt;NEGOCIO&lt;/div&gt;" style="swimlane;fontStyle=0;childLayout=stackLayout;horizontal=1;startSize=60;horizontalStack=0;resizeParent=1;resizeParentMax=0;resizeLast=0;collapsible=1;marginBottom=0;whiteSpace=wrap;html=1;" parent="1" vertex="1">
          <mxGeometry x="120" y="1360" width="140" height="60" as="geometry" />
        </mxCell>
        <mxCell id="XfBfYKV5XyBPK5F6d_Jy-38" value="-Las transacciones solo se pueden enviar una vez" style="swimlane;fontStyle=0;childLayout=stackLayout;horizontal=1;startSize=60;horizontalStack=0;resizeParent=1;resizeParentMax=0;resizeLast=0;collapsible=1;marginBottom=0;whiteSpace=wrap;html=1;" parent="1" vertex="1">
          <mxGeometry x="260" y="1360" width="460" height="60" as="geometry" />
        </mxCell>
        <mxCell id="XfBfYKV5XyBPK5F6d_Jy-39" value="CRITERIOS DE ACEPTACION" style="swimlane;fontStyle=0;childLayout=stackLayout;horizontal=1;startSize=60;horizontalStack=0;resizeParent=1;resizeParentMax=0;resizeLast=0;collapsible=1;marginBottom=0;whiteSpace=wrap;html=1;" parent="1" vertex="1">
          <mxGeometry x="120" y="1470" width="170" height="60" as="geometry" />
        </mxCell>
        <mxCell id="XfBfYKV5XyBPK5F6d_Jy-40" value="" style="swimlane;fontStyle=0;childLayout=stackLayout;horizontal=1;startSize=60;horizontalStack=0;resizeParent=1;resizeParentMax=0;resizeLast=0;collapsible=1;marginBottom=0;whiteSpace=wrap;html=1;" parent="1" vertex="1">
          <mxGeometry x="290" y="1470" width="430" height="60" as="geometry" />
        </mxCell>
        <mxCell id="XfBfYKV5XyBPK5F6d_Jy-41" value="ESCENARIO 1:" style="swimlane;fontStyle=0;childLayout=stackLayout;horizontal=1;startSize=120;horizontalStack=0;resizeParent=1;resizeParentMax=0;resizeLast=0;collapsible=1;marginBottom=0;whiteSpace=wrap;html=1;" parent="1" vertex="1">
          <mxGeometry x="190" y="1530" width="100" height="120" as="geometry" />
        </mxCell>
        <mxCell id="XfBfYKV5XyBPK5F6d_Jy-42" value="Registro Exitoso:&lt;div&gt;Dado que el gerente no realizo el Registro de Pagos en el dia,&amp;nbsp;&lt;span style=&quot;background-color: initial;&quot;&gt;que la conexion con la central es exitosa y que la clave maestra es &quot;5555&quot;&lt;/span&gt;&lt;/div&gt;&lt;div&gt;Cuando el gerente ingresa la clave maestra &quot;5555&quot;&lt;/div&gt;&lt;div&gt;Entonces el sistema registra las transacciones como enviadas&lt;/div&gt;&lt;div&gt;&lt;br&gt;&lt;/div&gt;&lt;div&gt;&lt;br&gt;&lt;/div&gt;" style="swimlane;fontStyle=0;childLayout=stackLayout;horizontal=1;startSize=120;horizontalStack=0;resizeParent=1;resizeParentMax=0;resizeLast=0;collapsible=1;marginBottom=0;whiteSpace=wrap;html=1;" parent="1" vertex="1">
          <mxGeometry x="290" y="1530" width="430" height="120" as="geometry" />
        </mxCell>
        <mxCell id="XfBfYKV5XyBPK5F6d_Jy-43" value="" style="swimlane;startSize=0;" parent="1" vertex="1">
          <mxGeometry x="120" y="1300" width="600" height="710" as="geometry" />
        </mxCell>
        <mxCell id="XfBfYKV5XyBPK5F6d_Jy-44" value="ESCENARIO 2:" style="swimlane;fontStyle=0;childLayout=stackLayout;horizontal=1;startSize=120;horizontalStack=0;resizeParent=1;resizeParentMax=0;resizeLast=0;collapsible=1;marginBottom=0;whiteSpace=wrap;html=1;" parent="XfBfYKV5XyBPK5F6d_Jy-43" vertex="1">
          <mxGeometry x="70" y="350" width="100" height="120" as="geometry" />
        </mxCell>
        <mxCell id="XfBfYKV5XyBPK5F6d_Jy-45" value="Registro Fallido por Transacciones Enviadas:&lt;div&gt;Dado que el gerente realizo el Registro de Pagos en el dia,&amp;nbsp;&lt;span style=&quot;background-color: initial;&quot;&gt;que la conexion con la central es exitosa y que la clave maestra es &quot;2222&quot;&lt;/span&gt;&lt;/div&gt;&lt;div&gt;Cuando el gerente ingresa la clave maestra &quot;2222&quot;&lt;/div&gt;&lt;div&gt;Entonces el sistema informa que ya se enviaron las transacciones.&lt;/div&gt;&lt;div&gt;&lt;br&gt;&lt;/div&gt;" style="swimlane;fontStyle=0;childLayout=stackLayout;horizontal=1;startSize=120;horizontalStack=0;resizeParent=1;resizeParentMax=0;resizeLast=0;collapsible=1;marginBottom=0;whiteSpace=wrap;html=1;" parent="XfBfYKV5XyBPK5F6d_Jy-43" vertex="1">
          <mxGeometry x="170" y="350" width="430" height="120" as="geometry" />
        </mxCell>
        <mxCell id="XfBfYKV5XyBPK5F6d_Jy-46" value="ESCENARIO 3:" style="swimlane;fontStyle=0;childLayout=stackLayout;horizontal=1;startSize=120;horizontalStack=0;resizeParent=1;resizeParentMax=0;resizeLast=0;collapsible=1;marginBottom=0;whiteSpace=wrap;html=1;" parent="XfBfYKV5XyBPK5F6d_Jy-43" vertex="1">
          <mxGeometry x="70" y="470" width="100" height="120" as="geometry" />
        </mxCell>
        <mxCell id="XfBfYKV5XyBPK5F6d_Jy-47" value="Registro Fallido por Falla de Conexion:&lt;div&gt;Dado que el gerente no realizo el Registro de Pagos en el dia,&amp;nbsp;&lt;span style=&quot;background-color: initial;&quot;&gt;que la conexion con la central no es exitosa y que la clave maestra es &quot;1111&quot;&lt;/span&gt;&lt;/div&gt;&lt;div&gt;Cuando el gerente ingresa la clave maestra &quot;1111&quot;&lt;/div&gt;&lt;div&gt;Entonces el sistema informa que fallo la conexion con el servidor.&lt;/div&gt;" style="swimlane;fontStyle=0;childLayout=stackLayout;horizontal=1;startSize=120;horizontalStack=0;resizeParent=1;resizeParentMax=0;resizeLast=0;collapsible=1;marginBottom=0;whiteSpace=wrap;html=1;" parent="XfBfYKV5XyBPK5F6d_Jy-43" vertex="1">
          <mxGeometry x="170" y="470" width="430" height="120" as="geometry" />
        </mxCell>
        <mxCell id="XfBfYKV5XyBPK5F6d_Jy-48" value="Como gerente quiero registrar los pagos realizados para tener un seguimiento" style="text;html=1;align=center;verticalAlign=middle;resizable=0;points=[];autosize=1;strokeColor=none;fillColor=none;" parent="XfBfYKV5XyBPK5F6d_Jy-43" vertex="1">
          <mxGeometry x="140" y="30" width="440" height="30" as="geometry" />
        </mxCell>
        <mxCell id="XfBfYKV5XyBPK5F6d_Jy-49" value="ESCENARIO 4:" style="swimlane;fontStyle=0;childLayout=stackLayout;horizontal=1;startSize=120;horizontalStack=0;resizeParent=1;resizeParentMax=0;resizeLast=0;collapsible=1;marginBottom=0;whiteSpace=wrap;html=1;" parent="1" vertex="1">
          <mxGeometry x="190" y="1890" width="100" height="120" as="geometry" />
        </mxCell>
        <mxCell id="XfBfYKV5XyBPK5F6d_Jy-50" value="Registro Fallido por Clave Incorrecta:&lt;div&gt;Dado que el gerente no realizo el Registro de Pagos en el dia,&amp;nbsp;&lt;span style=&quot;background-color: initial;&quot;&gt;que la conexion con la central&amp;nbsp; es exitosa y que la clave maestra es &quot;1234&quot;&lt;/span&gt;&lt;/div&gt;&lt;div&gt;Cuando el gerente ingresa la clave maestra &quot;3333&quot;&lt;/div&gt;&lt;div&gt;Entonces el sistema informa que la clave no es correcta.&lt;/div&gt;" style="swimlane;fontStyle=0;childLayout=stackLayout;horizontal=1;startSize=120;horizontalStack=0;resizeParent=1;resizeParentMax=0;resizeLast=0;collapsible=1;marginBottom=0;whiteSpace=wrap;html=1;" parent="1" vertex="1">
          <mxGeometry x="290" y="1890" width="430" height="120" as="geometry" />
        </mxCell>
        <mxCell id="XfBfYKV5XyBPK5F6d_Jy-51" value="ID" style="swimlane;fontStyle=0;childLayout=stackLayout;horizontal=1;startSize=30;horizontalStack=0;resizeParent=1;resizeParentMax=0;resizeLast=0;collapsible=1;marginBottom=0;whiteSpace=wrap;html=1;" parent="1" vertex="1">
          <mxGeometry x="120" y="2040" width="140" height="90" as="geometry" />
        </mxCell>
        <mxCell id="XfBfYKV5XyBPK5F6d_Jy-52" value="TITULO" style="text;html=1;align=center;verticalAlign=middle;resizable=0;points=[];autosize=1;strokeColor=none;fillColor=none;" parent="XfBfYKV5XyBPK5F6d_Jy-51" vertex="1">
          <mxGeometry y="30" width="140" height="30" as="geometry" />
        </mxCell>
        <mxCell id="XfBfYKV5XyBPK5F6d_Jy-53" value="Descripción" style="text;html=1;align=center;verticalAlign=middle;resizable=0;points=[];autosize=1;strokeColor=none;fillColor=none;" parent="XfBfYKV5XyBPK5F6d_Jy-51" vertex="1">
          <mxGeometry y="60" width="140" height="30" as="geometry" />
        </mxCell>
        <mxCell id="XfBfYKV5XyBPK5F6d_Jy-54" value="Ver Estadisticas" style="swimlane;fontStyle=0;childLayout=stackLayout;horizontal=1;startSize=20;horizontalStack=0;resizeParent=1;resizeParentMax=0;resizeLast=0;collapsible=1;marginBottom=0;whiteSpace=wrap;html=1;" parent="1" vertex="1">
          <mxGeometry x="260" y="2040" width="460" height="60" as="geometry" />
        </mxCell>
        <mxCell id="XfBfYKV5XyBPK5F6d_Jy-66" value="Como gerente quiero ver las estadisticas de los impuestos y servicios cobrados&amp;nbsp;&lt;div&gt;para hacer un analisis&lt;/div&gt;" style="text;html=1;align=center;verticalAlign=middle;resizable=0;points=[];autosize=1;strokeColor=none;fillColor=none;" parent="XfBfYKV5XyBPK5F6d_Jy-54" vertex="1">
          <mxGeometry y="20" width="460" height="40" as="geometry" />
        </mxCell>
        <mxCell id="XfBfYKV5XyBPK5F6d_Jy-55" value="REGLAS DEL&lt;div&gt;NEGOCIO&lt;/div&gt;" style="swimlane;fontStyle=0;childLayout=stackLayout;horizontal=1;startSize=60;horizontalStack=0;resizeParent=1;resizeParentMax=0;resizeLast=0;collapsible=1;marginBottom=0;whiteSpace=wrap;html=1;" parent="1" vertex="1">
          <mxGeometry x="120" y="2100" width="140" height="60" as="geometry" />
        </mxCell>
        <mxCell id="XfBfYKV5XyBPK5F6d_Jy-56" value="" style="swimlane;fontStyle=0;childLayout=stackLayout;horizontal=1;startSize=60;horizontalStack=0;resizeParent=1;resizeParentMax=0;resizeLast=0;collapsible=1;marginBottom=0;whiteSpace=wrap;html=1;" parent="1" vertex="1">
          <mxGeometry x="260" y="2100" width="460" height="60" as="geometry" />
        </mxCell>
        <mxCell id="XfBfYKV5XyBPK5F6d_Jy-57" value="CRITERIOS DE ACEPTACION" style="swimlane;fontStyle=0;childLayout=stackLayout;horizontal=1;startSize=60;horizontalStack=0;resizeParent=1;resizeParentMax=0;resizeLast=0;collapsible=1;marginBottom=0;whiteSpace=wrap;html=1;" parent="1" vertex="1">
          <mxGeometry x="120" y="2210" width="170" height="60" as="geometry" />
        </mxCell>
        <mxCell id="XfBfYKV5XyBPK5F6d_Jy-58" value="" style="swimlane;fontStyle=0;childLayout=stackLayout;horizontal=1;startSize=60;horizontalStack=0;resizeParent=1;resizeParentMax=0;resizeLast=0;collapsible=1;marginBottom=0;whiteSpace=wrap;html=1;" parent="1" vertex="1">
          <mxGeometry x="290" y="2210" width="430" height="60" as="geometry" />
        </mxCell>
        <mxCell id="XfBfYKV5XyBPK5F6d_Jy-59" value="ESCENARIO 1:" style="swimlane;fontStyle=0;childLayout=stackLayout;horizontal=1;startSize=120;horizontalStack=0;resizeParent=1;resizeParentMax=0;resizeLast=0;collapsible=1;marginBottom=0;whiteSpace=wrap;html=1;" parent="1" vertex="1">
          <mxGeometry x="190" y="2270" width="100" height="120" as="geometry" />
        </mxCell>
        <mxCell id="XfBfYKV5XyBPK5F6d_Jy-60" value="Visualizacion Exitosa:&lt;div&gt;Dado que la clave maestra es &quot;1234&quot;&lt;/div&gt;&lt;div&gt;Cuando el gerente ingresa la clave &quot;1234&quot; y las fechas &quot;1/1/2000&quot; y &quot;1/1/2002&quot;&lt;/div&gt;&lt;div&gt;Entonces el sistema muestra los montos y la cantidad de cobros realizados en ese rango de fechas, agrupados por empresa.&lt;/div&gt;" style="swimlane;fontStyle=0;childLayout=stackLayout;horizontal=1;startSize=120;horizontalStack=0;resizeParent=1;resizeParentMax=0;resizeLast=0;collapsible=1;marginBottom=0;whiteSpace=wrap;html=1;" parent="1" vertex="1">
          <mxGeometry x="290" y="2270" width="430" height="120" as="geometry" />
        </mxCell>
        <mxCell id="XfBfYKV5XyBPK5F6d_Jy-61" value="" style="swimlane;startSize=0;" parent="1" vertex="1">
          <mxGeometry x="120" y="2040" width="600" height="590" as="geometry" />
        </mxCell>
        <mxCell id="XfBfYKV5XyBPK5F6d_Jy-62" value="ESCENARIO 2:" style="swimlane;fontStyle=0;childLayout=stackLayout;horizontal=1;startSize=120;horizontalStack=0;resizeParent=1;resizeParentMax=0;resizeLast=0;collapsible=1;marginBottom=0;whiteSpace=wrap;html=1;" parent="XfBfYKV5XyBPK5F6d_Jy-61" vertex="1">
          <mxGeometry x="70" y="350" width="100" height="120" as="geometry" />
        </mxCell>
        <mxCell id="XfBfYKV5XyBPK5F6d_Jy-63" value="Visualizacion Fallida por Clave Incorrecta:&lt;div&gt;Dado que la clave maestra es &quot;1212&quot;&lt;/div&gt;&lt;div&gt;Cuando el gerente ingresa la clave &quot;9898&quot; y las fechas &quot;1/1/2003&quot; y &quot;1/1/2005&quot;&lt;/div&gt;&lt;div&gt;Entonces el sistema infroma que la clave maestra es incorrecta.&lt;/div&gt;" style="swimlane;fontStyle=0;childLayout=stackLayout;horizontal=1;startSize=120;horizontalStack=0;resizeParent=1;resizeParentMax=0;resizeLast=0;collapsible=1;marginBottom=0;whiteSpace=wrap;html=1;" parent="XfBfYKV5XyBPK5F6d_Jy-61" vertex="1">
          <mxGeometry x="170" y="350" width="430" height="120" as="geometry" />
        </mxCell>
        <mxCell id="XfBfYKV5XyBPK5F6d_Jy-68" value="ESCENARIO 3:" style="swimlane;fontStyle=0;childLayout=stackLayout;horizontal=1;startSize=120;horizontalStack=0;resizeParent=1;resizeParentMax=0;resizeLast=0;collapsible=1;marginBottom=0;whiteSpace=wrap;html=1;" parent="XfBfYKV5XyBPK5F6d_Jy-61" vertex="1">
          <mxGeometry x="70" y="470" width="100" height="120" as="geometry" />
        </mxCell>
        <mxCell id="XfBfYKV5XyBPK5F6d_Jy-69" value="&lt;br&gt;&lt;span style=&quot;color: rgb(240, 240, 240); font-family: Helvetica; font-size: 12px; font-style: normal; font-variant-ligatures: normal; font-variant-caps: normal; font-weight: 400; letter-spacing: normal; orphans: 2; text-align: center; text-indent: 0px; text-transform: none; widows: 2; word-spacing: 0px; -webkit-text-stroke-width: 0px; white-space: normal; text-decoration-thickness: initial; text-decoration-style: initial; text-decoration-color: initial; float: none; display: inline !important;&quot;&gt;Visualizacion Exitosapor Estadisticas Vacias:&lt;/span&gt;&lt;div style=&quot;forced-color-adjust: none; border-color: rgb(0, 0, 0); color: rgb(240, 240, 240); font-family: Helvetica; font-size: 12px; font-style: normal; font-variant-ligatures: normal; font-variant-caps: normal; font-weight: 400; letter-spacing: normal; orphans: 2; text-align: center; text-indent: 0px; text-transform: none; widows: 2; word-spacing: 0px; -webkit-text-stroke-width: 0px; white-space: normal; text-decoration-thickness: initial; text-decoration-style: initial; text-decoration-color: initial;&quot;&gt;Dado que la clave maestra es &quot;1111&quot;&lt;/div&gt;&lt;div style=&quot;forced-color-adjust: none; border-color: rgb(0, 0, 0); color: rgb(240, 240, 240); font-family: Helvetica; font-size: 12px; font-style: normal; font-variant-ligatures: normal; font-variant-caps: normal; font-weight: 400; letter-spacing: normal; orphans: 2; text-align: center; text-indent: 0px; text-transform: none; widows: 2; word-spacing: 0px; -webkit-text-stroke-width: 0px; white-space: normal; text-decoration-thickness: initial; text-decoration-style: initial; text-decoration-color: initial;&quot;&gt;Cuando el gerente ingresa la clave &quot;1111&quot; y las fechas &quot;1/1/2020&quot; y &quot;1/1/2021&quot;&lt;/div&gt;&lt;div style=&quot;forced-color-adjust: none; border-color: rgb(0, 0, 0); color: rgb(240, 240, 240); font-family: Helvetica; font-size: 12px; font-style: normal; font-variant-ligatures: normal; font-variant-caps: normal; font-weight: 400; letter-spacing: normal; orphans: 2; text-align: center; text-indent: 0px; text-transform: none; widows: 2; word-spacing: 0px; -webkit-text-stroke-width: 0px; white-space: normal; text-decoration-thickness: initial; text-decoration-style: initial; text-decoration-color: initial;&quot;&gt;Entonces el sistema informa q no existen estadisticas para esas fechas.&lt;/div&gt;" style="swimlane;fontStyle=0;childLayout=stackLayout;horizontal=1;startSize=120;horizontalStack=0;resizeParent=1;resizeParentMax=0;resizeLast=0;collapsible=1;marginBottom=0;whiteSpace=wrap;html=1;" parent="XfBfYKV5XyBPK5F6d_Jy-61" vertex="1">
          <mxGeometry x="170" y="470" width="430" height="120" as="geometry" />
        </mxCell>
        <mxCell id="d-XYbT7FcbgBbC7TIMYO-1" value="ID" style="swimlane;fontStyle=0;childLayout=stackLayout;horizontal=1;startSize=30;horizontalStack=0;resizeParent=1;resizeParentMax=0;resizeLast=0;collapsible=1;marginBottom=0;whiteSpace=wrap;html=1;" vertex="1" parent="1">
          <mxGeometry x="120" y="2660" width="140" height="90" as="geometry" />
        </mxCell>
        <mxCell id="d-XYbT7FcbgBbC7TIMYO-2" value="TITULO" style="text;html=1;align=center;verticalAlign=middle;resizable=0;points=[];autosize=1;strokeColor=none;fillColor=none;" vertex="1" parent="d-XYbT7FcbgBbC7TIMYO-1">
          <mxGeometry y="30" width="140" height="30" as="geometry" />
        </mxCell>
        <mxCell id="d-XYbT7FcbgBbC7TIMYO-3" value="Descripción" style="text;html=1;align=center;verticalAlign=middle;resizable=0;points=[];autosize=1;strokeColor=none;fillColor=none;" vertex="1" parent="d-XYbT7FcbgBbC7TIMYO-1">
          <mxGeometry y="60" width="140" height="30" as="geometry" />
        </mxCell>
        <mxCell id="d-XYbT7FcbgBbC7TIMYO-4" value="Conectar con Central de Cobro" style="swimlane;fontStyle=0;childLayout=stackLayout;horizontal=1;startSize=20;horizontalStack=0;resizeParent=1;resizeParentMax=0;resizeLast=0;collapsible=1;marginBottom=0;whiteSpace=wrap;html=1;" vertex="1" parent="1">
          <mxGeometry x="260" y="2660" width="460" height="60" as="geometry" />
        </mxCell>
        <mxCell id="d-XYbT7FcbgBbC7TIMYO-16" value="Como empleado o gerente quiero establecer una conexion con la centrar de cobro&amp;nbsp;&lt;div&gt;para&amp;nbsp;&lt;span style=&quot;background-color: initial;&quot;&gt;recuperar los datos de una factura o registrar pagos del dia&lt;/span&gt;&lt;/div&gt;" style="text;html=1;align=center;verticalAlign=middle;resizable=0;points=[];autosize=1;strokeColor=none;fillColor=none;" vertex="1" parent="d-XYbT7FcbgBbC7TIMYO-4">
          <mxGeometry y="20" width="460" height="40" as="geometry" />
        </mxCell>
        <mxCell id="d-XYbT7FcbgBbC7TIMYO-5" value="REGLAS DEL&lt;div&gt;NEGOCIO&lt;/div&gt;" style="swimlane;fontStyle=0;childLayout=stackLayout;horizontal=1;startSize=60;horizontalStack=0;resizeParent=1;resizeParentMax=0;resizeLast=0;collapsible=1;marginBottom=0;whiteSpace=wrap;html=1;" vertex="1" parent="1">
          <mxGeometry x="120" y="2720" width="140" height="60" as="geometry" />
        </mxCell>
        <mxCell id="d-XYbT7FcbgBbC7TIMYO-6" value="" style="swimlane;fontStyle=0;childLayout=stackLayout;horizontal=1;startSize=60;horizontalStack=0;resizeParent=1;resizeParentMax=0;resizeLast=0;collapsible=1;marginBottom=0;whiteSpace=wrap;html=1;" vertex="1" parent="1">
          <mxGeometry x="260" y="2720" width="460" height="60" as="geometry" />
        </mxCell>
        <mxCell id="d-XYbT7FcbgBbC7TIMYO-7" value="CRITERIOS DE ACEPTACION" style="swimlane;fontStyle=0;childLayout=stackLayout;horizontal=1;startSize=60;horizontalStack=0;resizeParent=1;resizeParentMax=0;resizeLast=0;collapsible=1;marginBottom=0;whiteSpace=wrap;html=1;" vertex="1" parent="1">
          <mxGeometry x="120" y="2830" width="170" height="60" as="geometry" />
        </mxCell>
        <mxCell id="d-XYbT7FcbgBbC7TIMYO-8" value="" style="swimlane;fontStyle=0;childLayout=stackLayout;horizontal=1;startSize=60;horizontalStack=0;resizeParent=1;resizeParentMax=0;resizeLast=0;collapsible=1;marginBottom=0;whiteSpace=wrap;html=1;" vertex="1" parent="1">
          <mxGeometry x="290" y="2830" width="430" height="60" as="geometry" />
        </mxCell>
        <mxCell id="d-XYbT7FcbgBbC7TIMYO-9" value="ESCENARIO 1:" style="swimlane;fontStyle=0;childLayout=stackLayout;horizontal=1;startSize=120;horizontalStack=0;resizeParent=1;resizeParentMax=0;resizeLast=0;collapsible=1;marginBottom=0;whiteSpace=wrap;html=1;" vertex="1" parent="1">
          <mxGeometry x="190" y="2890" width="100" height="120" as="geometry" />
        </mxCell>
        <mxCell id="d-XYbT7FcbgBbC7TIMYO-10" value="Conexion Exitosa:&lt;div&gt;Dado que el token &quot;A1B2&quot; es valido y el servidor de la central no esta caido&lt;/div&gt;&lt;div&gt;Cuando se envia el token &quot;A1B2&quot; para recuperar datos de una factura o registrar pagos del dia&lt;/div&gt;&lt;div&gt;Entonces el sistema estable la conexion con la central de cobro y recupera los datos de una factura o registra los pagos del dia.&lt;/div&gt;" style="swimlane;fontStyle=0;childLayout=stackLayout;horizontal=1;startSize=120;horizontalStack=0;resizeParent=1;resizeParentMax=0;resizeLast=0;collapsible=1;marginBottom=0;whiteSpace=wrap;html=1;" vertex="1" parent="1">
          <mxGeometry x="290" y="2890" width="430" height="120" as="geometry" />
        </mxCell>
        <mxCell id="d-XYbT7FcbgBbC7TIMYO-11" value="" style="swimlane;startSize=0;" vertex="1" parent="1">
          <mxGeometry x="120" y="2660" width="600" height="590" as="geometry" />
        </mxCell>
        <mxCell id="d-XYbT7FcbgBbC7TIMYO-12" value="ESCENARIO 2:" style="swimlane;fontStyle=0;childLayout=stackLayout;horizontal=1;startSize=120;horizontalStack=0;resizeParent=1;resizeParentMax=0;resizeLast=0;collapsible=1;marginBottom=0;whiteSpace=wrap;html=1;" vertex="1" parent="d-XYbT7FcbgBbC7TIMYO-11">
          <mxGeometry x="70" y="350" width="100" height="120" as="geometry" />
        </mxCell>
        <mxCell id="d-XYbT7FcbgBbC7TIMYO-13" value="Conexion Fallida por Servidor Caido:&lt;div&gt;Dado que el token &quot;A2B5&quot; es valido y el servidor de la central esta caido&lt;/div&gt;&lt;div&gt;Cuando se envia el token &quot;A2B5&quot; para recuperar datos de una factura o registrar pagos del dia&lt;/div&gt;&lt;div&gt;Entonces el sistema informa que no puede establecer conexion con la central.&lt;/div&gt;" style="swimlane;fontStyle=0;childLayout=stackLayout;horizontal=1;startSize=120;horizontalStack=0;resizeParent=1;resizeParentMax=0;resizeLast=0;collapsible=1;marginBottom=0;whiteSpace=wrap;html=1;" vertex="1" parent="d-XYbT7FcbgBbC7TIMYO-11">
          <mxGeometry x="170" y="350" width="430" height="120" as="geometry" />
        </mxCell>
        <mxCell id="d-XYbT7FcbgBbC7TIMYO-14" value="ESCENARIO 3:" style="swimlane;fontStyle=0;childLayout=stackLayout;horizontal=1;startSize=120;horizontalStack=0;resizeParent=1;resizeParentMax=0;resizeLast=0;collapsible=1;marginBottom=0;whiteSpace=wrap;html=1;" vertex="1" parent="d-XYbT7FcbgBbC7TIMYO-11">
          <mxGeometry x="70" y="470" width="100" height="120" as="geometry" />
        </mxCell>
        <mxCell id="d-XYbT7FcbgBbC7TIMYO-15" value="Conexion Fallida por Token Invalido:&lt;div&gt;Dado que el token &quot;AC12&quot; es invalido y el servidor de la central no esta caido&lt;/div&gt;&lt;div&gt;Cuando se envia el token &quot;AC12&quot; para recuperar datos de una factura o registrar pagos del dia&lt;/div&gt;&lt;div&gt;Entonces el sistema informa que el token no fue validado.&lt;/div&gt;" style="swimlane;fontStyle=0;childLayout=stackLayout;horizontal=1;startSize=120;horizontalStack=0;resizeParent=1;resizeParentMax=0;resizeLast=0;collapsible=1;marginBottom=0;whiteSpace=wrap;html=1;" vertex="1" parent="d-XYbT7FcbgBbC7TIMYO-11">
          <mxGeometry x="170" y="470" width="430" height="120" as="geometry" />
        </mxCell>
      </root>
    </mxGraphModel>
  </diagram>
</mxfile>
